<svg width="25" height="19" viewBox="0 0 25 19" fill="none" xmlns="http://www.w3.org/2000/svg">
<path d="M12.3939 19C7.28235 19 3.12427 14.738 3.12427 9.5C3.12427 4.26205 7.2805 0 12.3939 0C17.5073 0 21.6586 4.26142 21.6586 9.5C21.6586 14.7386 17.503 19 12.3939 19ZM12.3939 1.42047C10.3029 1.42047 8.29749 2.27177 6.81891 3.7871C5.34034 5.30242 4.50968 7.35764 4.50968 9.50063C4.50968 11.6436 5.34034 13.6988 6.81891 15.2142C8.29749 16.7295 10.3029 17.5808 12.3939 17.5808C16.7403 17.5808 20.2769 13.9557 20.2769 9.50126C20.2769 5.0468 16.7385 1.42047 12.3939 1.42047Z" fill="white"/>
<path d="M4.39175 18.1117C4.10801 18.3862 3.64716 18.3676 3.39114 18.067C-2.84085 10.751 1.05598 3.99605 2.99513 1.4542C3.46087 0.843707 4.33335 0.853013 4.85814 1.41355L4.37834 0.900448C4.64565 1.1856 4.64191 1.6301 4.38855 1.92773C2.84008 3.74674 -1.57831 10.0553 4.42567 17.1185C4.67215 17.4085 4.66526 17.8471 4.39175 18.1117Z" fill="white"/>
<path d="M21.6079 18.0679C21.3523 18.368 20.8922 18.3868 20.6087 18.1129C20.3352 17.8487 20.3281 17.4104 20.5743 17.1207C26.589 10.0414 22.1443 3.72555 20.6032 1.91988C20.3541 1.62802 20.3501 1.1916 20.6123 0.911496C20.8813 0.624184 21.3209 0.614859 21.5745 0.915877C23.2382 2.89097 28.3522 10.1506 21.6079 18.0679Z" fill="white"/>
<path d="M13.9657 14.294C13.9658 14.581 13.8829 14.8615 13.7274 15.1002C13.5719 15.3388 13.3509 15.5249 13.0922 15.6348C12.8335 15.7446 12.5489 15.7734 12.2742 15.7175C11.9996 15.6615 11.7473 15.5233 11.5493 15.3204C11.3514 15.1175 11.2165 14.859 11.1619 14.5775C11.1073 14.296 11.1354 14.0043 11.2426 13.7392C11.3498 13.4741 11.5314 13.2476 11.7642 13.0882C11.9971 12.9289 12.2708 12.8439 12.5509 12.844C12.7367 12.844 12.9206 12.8815 13.0923 12.9544C13.264 13.0272 13.4199 13.134 13.5513 13.2687C13.6827 13.4033 13.7869 13.5632 13.858 13.7391C13.9291 13.915 13.9657 14.1036 13.9657 14.294Z" fill="white"/>
<path d="M13.9656 10.2986C13.9656 11.2751 13.3287 12.0743 12.5507 12.0743C11.7727 12.0743 11.1353 11.2751 11.1353 10.2986V5.03045C11.1353 4.05328 11.7721 3.2547 12.5507 3.2547C13.3293 3.2547 13.9656 4.05391 13.9656 5.03045V10.2986Z" fill="white"/>
</svg>
