<svg width="15" height="14" viewBox="0 0 15 14" fill="none" xmlns="http://www.w3.org/2000/svg">
<path d="M0.892358 0L0.0728455 0.819512L5.05366 5.80032L1.55707 9.32878L0 14L4.67577 12.4475L8.20423 8.95089L13.1805 13.9363L14.0091 13.1076L0.892358 0ZM11.7008 0.0773981C11.1272 0.0773981 10.558 0.291382 10.121 0.728455L6.69723 4.15219L7.5213 4.97626L9.38341 3.11415L10.8859 4.62569L9.02829 6.48325L9.85236 7.30732L13.2807 3.87902C14.1457 3.01398 14.1457 1.5935 13.2807 0.728455C12.8436 0.291382 12.2745 0.0773981 11.7008 0.0773981ZM5.87317 6.62894L7.37561 8.13138L4.04748 11.4276L1.83935 12.1607L2.57691 9.95252L5.87317 6.62894Z" fill="white"/>
</svg>
