<svg width="213" height="124" viewBox="0 0 213 124" fill="none" xmlns="http://www.w3.org/2000/svg">
<path opacity="0.3" d="M133.205 46.1956C147.977 54.7256 147.977 68.555 133.205 77.0905C118.433 85.6204 94.4803 85.6204 79.7074 77.0905C64.9358 68.555 64.9358 54.7256 79.7074 46.1956C94.4803 37.6657 118.433 37.6657 133.205 46.1956Z" fill="#0089FF"/>
<path opacity="0.5" d="M125.357 50.722C135.787 56.7516 135.787 66.5207 125.357 72.5503C114.921 78.5744 97.9969 78.5744 87.561 72.5503C77.125 66.5207 77.125 56.7516 87.561 50.722C97.9969 44.6979 114.921 44.6979 125.357 50.722Z" fill="#0089FF"/>
<mask id="path-3-inside-1" fill="white">
<path fill-rule="evenodd" clip-rule="evenodd" d="M31.1793 18.1691C72.753 -5.83882 140.154 -5.83882 181.726 18.1691C223.3 42.1768 223.3 81.1038 181.726 105.106C140.154 129.114 72.753 129.114 31.1793 105.106C-10.3931 81.1038 -10.3931 42.1768 31.1793 18.1691ZM31.7153 104.796C72.9906 128.633 139.916 128.633 181.19 104.796C222.471 80.9655 222.471 42.3151 181.19 18.4788C139.916 -5.35754 72.9906 -5.35754 31.7153 18.4788C-9.55864 42.3151 -9.55864 80.9655 31.7153 104.796Z"/>
</mask>
<path d="M181.726 18.1691L181.476 18.602V18.602L181.726 18.1691ZM31.1793 18.1691L30.9292 17.7361L30.9292 17.7361L31.1793 18.1691ZM181.726 105.106L181.476 104.673L181.476 104.673L181.726 105.106ZM31.1793 105.106L31.4293 104.673L31.4293 104.673L31.1793 105.106ZM181.19 104.796L180.94 104.363L180.94 104.363L181.19 104.796ZM31.7153 104.796L31.9654 104.363L31.9653 104.363L31.7153 104.796ZM181.19 18.4788L180.94 18.9118L180.94 18.9118L181.19 18.4788ZM31.7153 18.4788L31.4653 18.0458L31.4653 18.0458L31.7153 18.4788ZM181.976 17.7361C161.096 5.6779 133.761 -0.336853 106.453 -0.336853C79.1452 -0.336853 51.81 5.6779 30.9292 17.7361L31.4293 18.602C52.1223 6.65233 79.2743 0.663147 106.453 0.663147C133.632 0.663147 160.784 6.65233 181.476 18.602L181.976 17.7361ZM181.976 105.539C202.854 93.4853 213.407 77.6142 213.407 61.6396C213.407 45.6651 202.854 29.7926 181.976 17.7361L181.476 18.602C202.172 30.5533 212.407 46.1482 212.407 61.6396C212.407 77.1311 202.172 92.7245 181.476 104.673L181.976 105.539ZM30.9292 105.539C51.81 117.597 79.1452 123.612 106.453 123.612C133.761 123.612 161.096 117.597 181.976 105.539L181.476 104.673C160.784 116.623 133.632 122.612 106.453 122.612C79.2743 122.612 52.1223 116.623 31.4293 104.673L30.9292 105.539ZM30.9292 17.7361C10.0519 29.7926 -0.5 45.6651 -0.5 61.6396C-0.5 77.6142 10.0519 93.4853 30.9293 105.539L31.4293 104.673C10.7342 92.7245 0.5 77.1311 0.5 61.6396C0.5 46.1482 10.7343 30.5533 31.4293 18.602L30.9292 17.7361ZM180.94 104.363C160.397 116.227 133.439 122.174 106.453 122.174C79.4677 122.174 52.5091 116.227 31.9654 104.363L31.4653 105.229C52.1968 117.202 79.3387 123.174 106.453 123.174C133.568 123.174 160.709 117.202 181.44 105.229L180.94 104.363ZM180.94 18.9118C201.489 30.7774 211.651 46.2602 211.651 61.6396C211.651 77.019 201.489 92.5005 180.94 104.363L181.44 105.229C202.172 93.2613 212.651 77.5022 212.651 61.6396C212.651 45.7771 202.172 30.0166 181.44 18.0458L180.94 18.9118ZM31.9654 18.9118C52.5091 7.04786 79.4677 1.10155 106.453 1.10155C133.439 1.10155 160.397 7.04786 180.94 18.9118L181.44 18.0458C160.709 6.07342 133.568 0.101549 106.453 0.101549C79.3387 0.101549 52.1968 6.07342 31.4653 18.0458L31.9654 18.9118ZM31.9653 104.363C11.4195 92.5005 1.25985 77.0191 1.25985 61.6396C1.25985 46.2601 11.4195 30.7773 31.9654 18.9118L31.4653 18.0458C10.7371 30.0166 0.259846 45.7771 0.259846 61.6396C0.259846 77.5021 10.7372 93.2612 31.4653 105.229L31.9653 104.363Z" fill="#0089FF" mask="url(#path-3-inside-1)"/>
<path opacity="0.1" d="M174.609 22.2798C212.249 44.0141 212.249 79.2624 174.609 100.997C136.967 122.737 75.9375 122.737 38.297 100.997C0.655218 79.2624 0.655218 44.0141 38.297 22.2798C75.9375 0.545541 136.967 0.53997 174.609 22.2798Z" fill="#0089FF"/>
<path opacity="0.1" d="M169.185 25.41C203.834 45.4184 203.834 77.8566 169.185 97.865C134.541 117.873 78.3673 117.873 43.7243 97.865C9.08136 77.8566 9.08136 45.4184 43.7243 25.41C78.3673 5.40722 134.541 5.40722 169.185 25.41Z" fill="#0089FF"/>
<path opacity="0.15" d="M159.869 30.7959C189.363 47.8283 189.363 75.4483 159.869 92.4805C130.369 109.513 82.5464 109.513 53.0518 92.4805C23.5519 75.4483 23.5519 47.8283 53.0518 30.7959C82.5464 13.7637 130.369 13.7581 159.869 30.7959Z" fill="#0089FF"/>
<path opacity="0.2" d="M151.88 35.4073C176.967 49.895 176.967 73.3828 151.88 87.8705C126.794 102.358 86.1166 102.358 61.0292 87.8705C35.9432 73.3828 35.9432 49.895 61.0292 35.4073C86.1166 20.9196 126.794 20.9196 151.88 35.4073Z" fill="#0089FF"/>
<path opacity="0.25" d="M143.803 40.0678C164.426 51.9777 164.426 71.2945 143.803 83.2044C123.174 95.1143 89.7315 95.1143 69.108 83.2044C48.4778 71.2945 48.4778 51.9777 69.108 40.0678C89.7315 28.158 123.174 28.158 143.803 40.0678Z" fill="#0089FF"/>
</svg>
