<svg width="123" height="165" viewBox="0 0 123 165" fill="none" xmlns="http://www.w3.org/2000/svg">
<path d="M122.506 121.268C123.3 95.186 77.9959 78.1908 38.1319 87.813C20.5992 92.0528 -0.0719442 103.341 0.980548 121.418C0.949722 120.998 0.896877 120.577 0.896877 120.15C0.866051 129.591 0.595955 131.51 1.76882 135.473C6.08447 150.026 24.0752 158.759 38.9862 162.259L39.0347 162.271C76.095 170.955 118.28 156.786 122.224 133.14C122.62 130.77 122.512 129.736 122.537 120.51C122.537 120.763 122.512 121.016 122.506 121.268Z" fill="url(#paint0_linear)"/>
<path d="M98.2129 148.548C65.8484 162.609 14.2058 154.809 2.81192 128.979C1.48933 126.008 0.888959 122.911 0.894831 120.151V120.157V120.151C0.869876 128.528 0.749507 130.122 1.09887 132.491C3.44899 148.476 22.7917 158.459 38.9842 162.26L39.0326 162.272C78.5825 171.539 122.432 154.803 122.51 129.785L122.535 120.512C122.51 129.328 116.563 140.58 98.2129 148.548Z" fill="url(#paint1_linear)"/>
<path d="M118.232 44.8454L118.19 56.6987L117.992 118.112C117.986 122.286 116.597 126.459 113.832 130.381C110.993 134.392 106.706 138.144 100.97 141.362C94.5314 144.97 86.9849 147.514 78.9701 148.969C59.3089 152.59 36.8939 149.751 21.5322 140.556C10.8899 134.199 5.60541 125.984 5.63477 117.794L5.82119 58.0518L5.86376 44.5326C5.85202 49.4701 46.5572 51.641 78.9701 50.745C80.2457 50.7149 81.514 50.6668 82.7588 50.6247C102.473 49.9151 118.221 48.0147 118.232 44.8454Z" fill="url(#paint2_linear)"/>
<path d="M113.831 50.6247V130.381C110.992 134.392 106.706 138.145 100.969 141.362C94.5311 144.97 86.9846 147.514 78.9698 148.969V50.6247H113.831Z" fill="#CFCAC4"/>
<path d="M118.232 44.8454L118.189 56.6987C111.396 77.1399 73.6311 88.9029 40.2434 81.0789L40.2067 81.0669C26.9133 77.9397 11.0159 70.4344 5.82092 58.0518L5.86349 44.5326C5.84588 52.7296 118.214 53.3129 118.232 44.8454Z" fill="url(#paint3_linear)"/>
<path d="M118.189 65.4729V70.9034C117.271 73.6638 115.785 76.2737 113.831 78.6853C106.892 87.2251 93.9954 93.4614 78.9699 96.1917C66.7759 98.4048 53.1816 98.3146 40.2434 95.2776L40.2067 95.2716C26.9133 92.1444 11.0159 84.633 5.82092 72.2565L5.84588 66.8681C11.0467 79.2206 26.9192 86.7138 40.2067 89.8411L40.2434 89.847C53.1816 92.8841 66.7759 92.9743 78.9699 90.7612C93.9954 88.0308 106.892 81.7945 113.831 73.2548C115.785 70.8432 117.271 68.2333 118.189 65.4729Z" fill="url(#paint4_linear)"/>
<path d="M96.2584 68.095C65.6304 81.3977 16.7549 74.0186 5.96865 49.5724C4.72387 46.7579 4.15285 43.8291 4.15872 41.2191C4.13377 49.1454 4.01927 46.2166 4.35102 48.4597C6.5749 63.5846 24.8768 73.0324 40.2033 76.6347L40.2517 76.6468C77.6864 85.4149 119.184 69.5805 119.256 45.8978L119.281 41.5619C119.256 49.9031 113.63 60.5476 96.2584 68.095Z" fill="#9B9893"/>
<path d="M111.652 24.9017C109.613 22.839 107.28 20.9747 104.701 19.2727C98.4654 15.1893 90.7515 12.1824 82.3889 10.3421C62.0422 5.78972 37.7571 8.00876 20.8673 17.8114C6.98525 25.888 -0.302925 38.7216 7.05131 51.7055C16.3579 68.1474 42.0375 74.5642 61.0381 74.7446C76.7359 74.883 95.6647 71.0221 108.068 61.2616C121.566 50.6771 123.028 36.3882 111.652 24.9017Z" fill="#CFCAC4"/>
<path d="M102.362 20.4752C82.2796 7.329 45.7654 5.93372 23.092 19.0981C9.96008 26.7297 3.06971 38.8657 10.0261 51.146C18.8292 66.6978 43.1084 72.7598 61.0727 72.9342C75.9177 73.0605 93.8174 69.4101 105.542 60.1848C120.254 48.6442 120.099 32.1963 102.362 20.4752Z" fill="url(#paint5_linear)"/>
<path d="M118.127 31.0436C117.07 20.3028 107.545 10.8431 91.9849 5.09374C91.7691 5.01556 91.5519 4.93738 91.3361 4.86525C82.5037 1.67791 72.2944 0 61.8076 0C38.07 0 17.2375 8.38937 8.74706 21.3673C5.95069 25.7393 4.8204 30.334 5.296 34.8624C5.4516 36.6064 5.87289 38.3444 6.53491 40.0584C8.15842 44.3402 11.2542 48.4597 15.7519 52.1583C26.4956 60.8663 43.2532 65.8639 61.7298 65.8639C63.0642 65.8639 64.3809 65.8338 65.6917 65.7737C66.0587 65.7737 66.4257 65.7496 66.7809 65.7196C76.7671 65.2204 83.4769 63.308 84.4692 63.1095V62.015C79.9965 63.326 72.5645 64.3845 66.7809 64.6912L66.5578 64.7032C66.455 64.7032 66.3347 64.7152 66.2392 64.7152C66.0587 64.7333 65.8723 64.7453 65.6917 64.7453C64.3691 64.7994 63.0465 64.8294 61.7181 64.8294C49.8309 64.8294 38.5148 62.6945 28.9851 58.6593C28.7694 58.5871 28.5639 58.5029 28.3422 58.3886C23.3087 56.2116 11.1941 50.0293 7.41273 39.3728C6.88868 37.8934 6.53491 36.4079 6.37198 34.9045C6.18555 33.1605 6.23399 31.4225 6.55253 29.6905C6.95474 27.3631 7.8208 25.0718 9.11403 22.8407C14.5673 13.5432 25.606 8.38937 31.6846 6.13417C40.2704 2.85057 50.9069 1.0585 61.6388 1.0585C76.544 1.0585 90.5244 4.39019 100.998 10.4762C106.428 13.6334 115.134 20.0803 116.823 29.6183C117.033 30.6888 117.129 31.7893 117.129 32.932C117.129 33.5995 117.094 34.249 117.01 34.9045C116.865 36.2516 116.577 37.5866 116.132 38.8977C115.855 39.7396 115.518 40.5816 115.121 41.4055C112.831 46.2226 108.591 50.6909 102.765 54.3353C102.441 54.5397 102.116 54.7382 101.779 54.9367L101.678 54.9968C101.46 55.1351 101.233 55.2674 100.998 55.4058C98.3645 56.9393 95.5079 58.2924 92.4532 59.4711C92.0877 59.6094 91.7207 59.7538 91.3537 59.8741V61.0107C91.7207 60.8724 92.0877 60.7461 92.4532 60.5957C95.7061 59.3689 98.7491 57.9436 101.563 56.3259L101.678 56.2417L101.732 56.2056C101.827 56.1575 101.93 56.1034 102.008 56.0552C102.266 55.9049 102.519 55.7485 102.765 55.5922C108.37 52.1462 112.542 48.153 115.121 43.8171C115.53 43.1435 115.897 42.4519 116.21 41.7603C116.42 41.3273 116.606 40.8883 116.787 40.4433C117.496 38.6752 117.929 36.853 118.121 35.0007C118.261 33.6958 118.261 32.3787 118.127 31.0436Z" fill="url(#paint6_linear)"/>
<path d="M118.129 35.0549L118.117 35.0067C117.936 33.1665 117.503 31.3683 116.825 29.6244C113.608 21.1568 104.866 13.862 91.9926 9.11102C91.7768 9.02081 91.5478 8.93666 91.332 8.86445C82.5055 5.68913 72.2962 4.01727 61.8094 4.01727C38.066 4.01727 17.2319 12.4007 8.74886 25.3846C7.84756 26.8038 7.11361 28.2351 6.55433 29.6965C5.89818 31.3984 5.46661 33.1365 5.29193 34.8625C4.49779 42.3377 8.08096 49.867 15.7479 56.1696C26.4974 64.8776 43.255 69.8751 61.7316 69.8751C69.2297 69.8751 76.5106 69.0392 83.3774 67.3914L83.6358 67.3312L84.3081 67.1689L84.471 67.1268V66.0142C84.3741 66.0443 84.2787 66.0743 84.1818 66.0985C83.9661 66.1645 83.7488 66.2187 83.5272 66.2668L83.3774 66.3089C83.2688 66.339 83.1602 66.3691 82.9972 66.4051C76.3726 67.9928 69.0125 68.8407 61.7199 68.8407C49.8151 68.8407 38.5107 66.7058 28.9928 62.6766C28.777 62.5923 28.5598 62.5021 28.344 62.3999C23.3105 60.2349 11.19 54.0346 7.41453 43.3781C7.01673 42.2775 6.72314 41.1769 6.53085 40.0584C6.24167 38.3445 6.18736 36.6185 6.37965 34.9045C6.68057 32.1682 7.59508 29.456 9.11584 26.852C14.5691 17.5605 25.6019 12.3887 31.6923 10.1455C40.2722 6.86784 50.9146 5.0577 61.6347 5.0577C76.5458 5.0577 90.5262 8.40746 101.006 14.4755C106.663 17.771 115.911 24.6689 117.012 34.9045C117.095 35.578 117.125 36.2516 117.125 36.9432C117.125 38.1219 117.012 39.2826 116.783 40.4493C115.441 47.4074 110.127 54.0105 101.691 59.0081C101.468 59.1403 101.24 59.2847 101.006 59.417C98.3663 60.9506 95.5097 62.3036 92.455 63.4703C92.0895 63.6267 91.7225 63.759 91.3555 63.8793V65.022C91.7225 64.8897 92.0895 64.7573 92.455 64.613C95.7152 63.3922 98.7567 61.9609 101.565 60.3251L101.734 60.2229C101.829 60.1748 101.92 60.1207 102.004 60.0605C113.332 53.349 119.061 44.4605 118.129 35.0549Z" fill="url(#paint7_linear)"/>
<path d="M61.7142 9.38171C61.4074 9.38171 61.1666 9.14716 61.1666 8.84645V0.0120239H62.2544V8.84645C62.2544 9.1411 62.0077 9.38171 61.7142 9.38171Z" fill="url(#paint8_linear)"/>
<path d="M66.7833 64.6911V73.6939C66.7833 73.9945 66.5484 74.2231 66.2416 74.2231C65.9465 74.2231 65.6941 73.9825 65.6941 73.6939V64.7452C65.8746 64.7452 66.061 64.7332 66.2416 64.7151C66.337 64.7151 66.4574 64.7031 66.5601 64.7031L66.7833 64.6911Z" fill="url(#paint9_linear)"/>
<path d="M84.4719 62.003V70.741C84.4719 71.0358 84.2135 71.2823 83.9244 71.2823C83.6176 71.2823 83.371 71.0358 83.371 70.741V62.3096C83.6058 62.2495 84.0932 62.1172 84.4719 62.003Z" fill="url(#paint10_linear)"/>
<path d="M102.767 54.3353V63.6267C102.767 63.9093 102.52 64.162 102.214 64.162C101.92 64.162 101.679 63.9093 101.679 63.6267V54.9968C101.679 54.9968 102.274 54.6541 102.767 54.3353Z" fill="url(#paint11_linear)"/>
<path d="M92.4551 59.4651V68.3115C92.4551 68.6002 92.2027 68.8407 91.9032 68.8407C91.6023 68.8407 91.3557 68.6002 91.3557 68.3115V59.8741C91.7227 59.7537 92.0896 59.6094 92.4551 59.4651Z" fill="url(#paint12_linear)"/>
<path d="M116.213 38.9097V50.3661C116.213 50.6548 115.966 50.8894 115.671 50.8894C115.364 50.8894 115.123 50.6668 115.123 50.3661V41.4055C115.521 40.5816 115.857 39.7396 116.135 38.8977L116.213 38.9097Z" fill="url(#paint13_linear)"/>
<path d="M113.284 29.3597C112.989 29.3597 112.742 29.1192 112.742 28.8305V18.7452L113.128 19.2203C113.356 19.503 113.585 19.8036 113.789 20.0923L113.832 20.1465V28.8305C113.832 29.1252 113.591 29.3597 113.284 29.3597Z" fill="url(#paint14_linear)"/>
<path d="M104.187 20.5134C103.88 20.5134 103.639 20.2788 103.639 19.9841V10.837L103.976 11.0475C104.205 11.1919 104.422 11.3422 104.643 11.4985L104.727 11.5587V19.9841C104.727 20.2788 104.488 20.5134 104.187 20.5134Z" fill="url(#paint15_linear)"/>
<path d="M91.5847 14.2949C91.2838 14.2949 91.043 14.0544 91.043 13.7657V4.763L91.3249 4.85917C91.548 4.93139 91.777 5.01554 91.9928 5.09978L92.1249 5.14786V13.7657C92.1249 14.0544 91.8841 14.2949 91.5847 14.2949Z" fill="url(#paint16_linear)"/>
<path d="M76.6435 10.6445C76.3426 10.6445 76.1019 10.404 76.1019 10.1092V1.08246L76.3485 1.11256C76.5775 1.14256 76.7933 1.17863 77.0105 1.22075L77.1852 1.25085V10.1092C77.1852 10.4099 76.9503 10.6445 76.6435 10.6445Z" fill="url(#paint17_linear)"/>
<path d="M45.2459 10.6446C44.9449 10.6446 44.7042 10.41 44.7042 10.1093V1.51552L45.786 1.31107V10.1093C45.786 10.4041 45.5453 10.6446 45.2459 10.6446Z" fill="url(#paint18_linear)"/>
<path d="M31.9385 14.295C31.645 14.295 31.3983 14.0544 31.3983 13.7658V5.12386L31.5246 5.06972C31.7462 4.97355 31.9811 4.88931 32.2028 4.82315L32.4802 4.74496V13.7658C32.4802 14.0544 32.2395 14.295 31.9385 14.295Z" fill="url(#paint19_linear)"/>
<path d="M19.7587 20.5133C19.4636 20.5133 19.217 20.2727 19.217 19.984V11.1918L19.3081 11.1317C19.5238 10.9874 19.7396 10.843 19.9686 10.6987L20.3048 10.4882V19.984C20.3048 20.2788 20.0655 20.5133 19.7587 20.5133Z" fill="url(#paint20_linear)"/>
<path d="M9.2547 30.4903C8.95965 30.4903 8.71304 30.2497 8.71304 29.9551V21.4214L8.74974 21.3733C8.97286 21.0305 9.18277 20.7058 9.40443 20.393L9.80223 19.8337V29.9551C9.80223 30.2558 9.5615 30.4903 9.2547 30.4903Z" fill="url(#paint21_linear)"/>
<path d="M6.88422 48.3335C6.5833 48.3335 6.34402 48.093 6.34402 47.8043V37.2018L6.76972 37.1597C6.92092 37.8573 7.1367 38.597 7.41414 39.3729L7.42588 47.8043C7.42588 48.093 7.17927 48.3335 6.88422 48.3335Z" fill="url(#paint22_linear)"/>
<path d="M15.5676 60.1026C15.2608 60.1026 15.0142 59.868 15.0142 59.5734V50.1075L15.3812 50.4323C15.5911 50.6247 15.8142 50.8112 16.0359 50.9916L16.1078 51.0517V59.5734C16.1078 59.868 15.8685 60.1026 15.5676 60.1026Z" fill="url(#paint23_linear)"/>
<path d="M28.5851 68.0046C28.2841 68.0046 28.0434 67.7702 28.0434 67.4754V58.2442L28.3561 58.3945C28.566 58.4908 28.7715 58.581 28.9931 58.6652L29.1311 58.7132V67.4754C29.1311 67.7702 28.8845 68.0046 28.5851 68.0046Z" fill="url(#paint24_linear)"/>
<path d="M45.2459 72.5512C44.9449 72.5512 44.7042 72.3167 44.7042 72.022V63.2959L45.786 63.5003V72.022C45.786 72.3106 45.5453 72.5512 45.2459 72.5512Z" fill="url(#paint25_linear)"/>
<path d="M86.5703 65.8037V149.908C86.5703 150.202 86.3105 150.455 86.0227 150.455C85.716 150.455 85.4693 150.202 85.4693 149.908V66.0985L85.6249 66.0563C85.8481 66.0083 86.0638 65.9481 86.2811 65.888L86.5703 65.8037Z" fill="url(#paint26_linear)"/>
<path d="M94.5498 69.0271V70.1846L93.4518 70.531L86.5673 72.7571L85.4693 73.1033V71.9556L86.5673 71.6094L93.4518 69.3833L94.5498 69.0271Z" fill="url(#paint27_linear)"/>
<path d="M94.5498 74.9447V76.1022L93.4518 76.4485L86.5673 78.6746L85.4693 79.021V77.8732L86.5673 77.5269L93.4518 75.3008L94.5498 74.9447Z" fill="url(#paint28_linear)"/>
<path d="M94.5498 80.8624V82.0199L93.4518 82.3663L86.5673 84.5923L85.4693 84.9387V83.791L86.5673 83.4447L93.4518 81.2186L94.5498 80.8624Z" fill="url(#paint29_linear)"/>
<path d="M94.5498 86.774V87.9317L93.4518 88.2779L86.5673 90.504L85.4693 90.8503V89.7026L86.5673 89.3564L93.4518 87.1302L94.5498 86.774Z" fill="url(#paint30_linear)"/>
<path d="M94.5498 92.6917V93.8492L93.4518 94.1955L86.5673 96.4216L85.4693 96.7678V95.6201L86.5673 95.2739L93.4518 93.0478L94.5498 92.6917Z" fill="url(#paint31_linear)"/>
<path d="M94.5498 98.6092V99.7667L93.4518 100.113L86.5673 102.339L85.4693 102.685V101.538L86.5673 101.191L93.4518 98.9654L94.5498 98.6092Z" fill="url(#paint32_linear)"/>
<path d="M94.5498 104.527V105.685L93.4518 106.031L86.5673 108.257L85.4693 108.603V107.456L86.5673 107.109L93.4518 104.883L94.5498 104.527Z" fill="url(#paint33_linear)"/>
<path d="M94.5498 110.445V111.602L93.4518 111.948L86.5673 114.174L85.4693 114.521V113.373L86.5673 113.027L93.4518 110.801L94.5498 110.445Z" fill="url(#paint34_linear)"/>
<path d="M94.5498 116.356V117.514L93.4518 117.86L86.5673 120.086L85.4693 120.432V119.285L86.5673 118.938L93.4518 116.712L94.5498 116.356Z" fill="url(#paint35_linear)"/>
<path d="M94.5498 122.274V123.431L93.4518 123.778L86.5673 126.004L85.4693 126.35V125.202L86.5673 124.856L93.4518 122.63L94.5498 122.274Z" fill="url(#paint36_linear)"/>
<path d="M94.5498 128.191V129.349L93.4518 129.695L86.5673 131.921L85.4693 132.268V131.12L86.5673 130.774L93.4518 128.548L94.5498 128.191Z" fill="url(#paint37_linear)"/>
<path d="M94.5498 134.109V135.267L93.4518 135.613L86.5673 137.839L85.4693 138.185V137.038L86.5673 136.691L93.4518 134.465L94.5498 134.109Z" fill="url(#paint38_linear)"/>
<path d="M94.5498 140.027V141.184L93.4518 141.531L86.5673 143.757L85.4693 144.103V142.955L86.5673 142.609L93.4518 140.383L94.5498 140.027Z" fill="url(#paint39_linear)"/>
<path d="M94.5488 63.2638C94.537 63.9314 94.5062 64.9597 94.2479 65.0079C93.9954 65.0499 93.6533 64.2141 93.4537 63.6728C93.5271 62.4881 93.3275 61.4116 92.4555 60.5937C92.4262 60.4734 92.4086 60.3231 92.4027 60.1547C92.3968 59.9262 92.4203 59.6194 92.4555 59.4691C94.0438 59.1203 94.5914 61.5199 94.5488 63.2638Z" fill="url(#paint40_linear)"/>
<path d="M85.4706 62.1651C86.3969 62.7124 86.595 64.5767 86.5716 65.6893C86.5525 66.3508 86.529 67.3852 86.2648 67.4273C86.0182 67.4694 85.6688 66.6334 85.4706 66.0983C85.5484 64.9135 85.3502 63.837 84.4724 63.0191C84.4489 62.8928 84.424 62.7424 84.424 62.574C84.4181 62.3455 84.4431 62.1531 84.4724 62.0028C84.5928 61.9727 84.8086 61.9426 85.0611 61.9968C85.0611 61.9968 85.2724 62.0448 85.4706 62.1651Z" fill="url(#paint41_linear)"/>
<path d="M94.5491 63.2658V147.484C94.5491 147.773 94.3025 148.007 94.0075 148.007C93.7007 148.007 93.4541 147.773 93.4541 147.484V63.6748C93.821 63.5545 94.1821 63.4101 94.5491 63.2658Z" fill="url(#paint42_linear)"/>
<path d="M96.2688 21.2244C81.183 11.3497 53.7551 10.3093 36.7273 20.1901C26.8659 25.9273 21.6901 35.0383 26.9144 44.2635C33.5288 55.9424 51.7646 60.501 65.2562 60.6273C76.4035 60.7235 89.8481 57.9812 98.6556 51.0532C109.707 42.3872 109.587 30.0347 96.2688 21.2244Z" fill="#FFFBF2"/>
<path d="M73.8171 25.0622L85.1773 31.6707L95.1238 25.9891V24.5354L83.7637 17.9273L73.8171 23.6088V25.0622Z" fill="#9B9893"/>
<path d="M73.8171 23.6088L85.1773 30.217L95.1238 24.5354L83.7637 17.9273L73.8171 23.6088Z" fill="#E6E2D9"/>
<path d="M91.3346 24.5176L83.7572 20.1104L77.6111 23.6209L85.1885 28.028L91.3346 24.5176Z" fill="#9B9893"/>
<path d="M89.4296 25.6039L83.7473 22.2994L79.5051 24.7265L85.1873 28.0311L89.4296 25.6039Z" fill="#727272"/>
<path d="M73.8171 23.6044V25.0578L85.1773 31.6663V30.2126L73.8171 23.6044Z" fill="#CFCAC4"/>
<path d="M49.9894 24.4854C46.3049 22.3566 40.3393 22.3566 36.6784 24.4854C33.01 26.6143 33.035 30.0723 36.7209 32.2012C40.4127 34.3301 46.371 34.3301 50.0378 32.2012C53.7002 30.0723 53.6812 26.6143 49.9894 24.4854Z" fill="url(#paint43_linear)"/>
<path d="M49.5093 27.6522C49.5988 24.6572 44.398 22.7028 39.8167 23.8093C37.8027 24.2964 35.4276 25.5954 35.5539 27.6702C35.548 27.6221 35.5421 27.574 35.5421 27.5259C35.5363 28.6083 35.5054 28.8309 35.6434 29.2819C36.1366 30.9537 38.2049 31.9581 39.9136 32.361H39.9194C44.1764 33.3593 49.0219 31.7295 49.4726 29.0173C49.521 28.7407 49.5093 28.6264 49.5093 27.5679V27.6522Z" fill="#9B9893"/>
<path d="M51.1992 24.9934C51.3137 21.2708 44.849 18.8472 39.1624 20.2244C36.661 20.8258 33.7149 22.4375 33.8647 25.0174C33.8588 24.9573 33.8529 24.8912 33.8529 24.8311C33.847 26.1782 33.8103 26.4547 33.9792 27.0201C34.5927 29.0949 37.1601 30.3397 39.2886 30.8389H39.2945C44.5789 32.0777 50.5915 30.057 51.1567 26.6833C51.211 26.3465 51.1992 26.2022 51.1992 24.8851V24.9934Z" fill="#787A7C"/>
<path d="M48.1589 21.2816C45.0264 19.4715 39.9636 19.4715 36.8501 21.2816C33.7352 23.0858 33.7529 26.0206 36.8854 27.8308C40.0238 29.6409 45.0866 29.6409 48.2015 27.8308C51.3105 26.0206 51.2973 23.0858 48.1589 21.2816Z" fill="url(#paint44_linear)"/>
<path d="M47.7279 28.8846C43.1171 30.8872 35.7512 29.7747 34.1218 26.0942C33.9354 25.6672 33.8517 25.2282 33.8517 24.8313V24.8373V24.8313C33.8458 26.028 33.8326 26.2566 33.881 26.5934C34.2187 28.8726 36.9725 30.2979 39.2874 30.8391H39.2932C44.933 32.1622 51.1863 29.7747 51.198 26.2084V24.8854C51.198 26.1423 50.3496 27.748 47.7279 28.8846Z" fill="url(#paint45_linear)"/>
<path fill-rule="evenodd" clip-rule="evenodd" d="M49.0065 21.5296C49.397 21.7822 49.7463 22.0649 50.0517 22.3776C51.7662 24.1036 51.5489 26.2566 49.5115 27.8562C47.6414 29.3236 44.7907 29.907 42.4288 29.8889C39.5605 29.8589 35.694 28.8906 34.2937 26.4129C33.181 24.4584 34.2819 22.522 36.3737 21.3071C38.9176 19.8278 42.5785 19.497 45.645 20.1825C46.9015 20.4592 48.0685 20.9102 49.0065 21.5296ZM49.2464 27.0796C50.6894 25.7987 51.0138 24.0607 49.6853 22.5091C47.9591 20.4885 44.4845 19.8089 41.8085 19.9412C35.3321 20.266 32.3082 24.6621 36.3787 27.5066C39.8356 29.9182 46.3297 29.6897 49.2464 27.0796Z" fill="url(#paint46_linear)"/>
<defs>
<linearGradient id="paint0_linear" x1="43.6982" y1="55.5618" x2="27.6644" y2="124.594" gradientUnits="userSpaceOnUse">
<stop stop-color="#001E26"/>
<stop offset="1" stop-color="#90929B"/>
</linearGradient>
<linearGradient id="paint1_linear" x1="99.4731" y1="77.4311" x2="14.1245" y2="207.539" gradientUnits="userSpaceOnUse">
<stop stop-color="#90929B"/>
<stop offset="1" stop-color="#131822"/>
</linearGradient>
<linearGradient id="paint2_linear" x1="149.389" y1="15.9984" x2="-23.848" y2="15.9984" gradientUnits="userSpaceOnUse">
<stop stop-color="#F4F0E7"/>
<stop offset="0.000821821" stop-color="#F3EFE6"/>
<stop offset="0.283885" stop-color="#CFCAC4"/>
<stop offset="0.537644" stop-color="#DDD8D1"/>
<stop offset="1" stop-color="#F4F0E7"/>
</linearGradient>
<linearGradient id="paint3_linear" x1="-63.7672" y1="39.9171" x2="-61.3134" y2="125.186" gradientUnits="userSpaceOnUse">
<stop stop-color="#E6E2D9"/>
<stop offset="1" stop-color="#9B9893"/>
</linearGradient>
<linearGradient id="paint4_linear" x1="44.4024" y1="86.6742" x2="72.391" y2="74.9985" gradientUnits="userSpaceOnUse">
<stop stop-color="#90929B"/>
<stop offset="1" stop-color="#131822" stop-opacity="0.501961"/>
</linearGradient>
<linearGradient id="paint5_linear" x1="72.1537" y1="-43.8028" x2="37.1146" y2="45.6578" gradientUnits="userSpaceOnUse">
<stop stop-color="#F4F0E7"/>
<stop offset="0.000821821" stop-color="#F3EFE6"/>
<stop offset="0.283885" stop-color="#CFCAC4"/>
<stop offset="0.537644" stop-color="#DDD8D1"/>
<stop offset="1" stop-color="#F4F0E7"/>
</linearGradient>
<linearGradient id="paint6_linear" x1="-91.5504" y1="55.3837" x2="-78.2161" y2="238.622" gradientUnits="userSpaceOnUse">
<stop stop-color="#9FA0A6"/>
<stop offset="1" stop-color="white"/>
</linearGradient>
<linearGradient id="paint7_linear" x1="-92.3965" y1="55.5589" x2="-79.0664" y2="238.797" gradientUnits="userSpaceOnUse">
<stop stop-color="#9FA0A6"/>
<stop offset="1" stop-color="white"/>
</linearGradient>
<linearGradient id="paint8_linear" x1="59.4013" y1="210.26" x2="109.488" y2="213.41" gradientUnits="userSpaceOnUse">
<stop stop-color="#9FA0A6"/>
<stop offset="1" stop-color="white"/>
</linearGradient>
<linearGradient id="paint9_linear" x1="50.6264" y1="214.849" x2="100.371" y2="217.879" gradientUnits="userSpaceOnUse">
<stop stop-color="#9FA0A6"/>
<stop offset="1" stop-color="white"/>
</linearGradient>
<linearGradient id="paint10_linear" x1="67.7118" y1="204.825" x2="118.286" y2="208.147" gradientUnits="userSpaceOnUse">
<stop stop-color="#9FA0A6"/>
<stop offset="1" stop-color="white"/>
</linearGradient>
<linearGradient id="paint11_linear" x1="87.4458" y1="212.516" x2="136.535" y2="215.322" gradientUnits="userSpaceOnUse">
<stop stop-color="#9FA0A6"/>
<stop offset="1" stop-color="white"/>
</linearGradient>
<linearGradient id="paint12_linear" x1="75.9761" y1="204.998" x2="126.287" y2="208.226" gradientUnits="userSpaceOnUse">
<stop stop-color="#9FA0A6"/>
<stop offset="1" stop-color="white"/>
</linearGradient>
<linearGradient id="paint13_linear" x1="105.038" y1="247.533" x2="150.833" y2="249.296" gradientUnits="userSpaceOnUse">
<stop stop-color="#9FA0A6"/>
<stop offset="1" stop-color="white"/>
</linearGradient>
<linearGradient id="paint14_linear" x1="105.822" y1="222.553" x2="153.496" y2="224.895" gradientUnits="userSpaceOnUse">
<stop stop-color="#9FA0A6"/>
<stop offset="1" stop-color="white"/>
</linearGradient>
<linearGradient id="paint15_linear" x1="98.0166" y1="207.526" x2="147.418" y2="210.439" gradientUnits="userSpaceOnUse">
<stop stop-color="#9FA0A6"/>
<stop offset="1" stop-color="white"/>
</linearGradient>
<linearGradient id="paint16_linear" x1="87.1661" y1="208.176" x2="136.768" y2="211.157" gradientUnits="userSpaceOnUse">
<stop stop-color="#9FA0A6"/>
<stop offset="1" stop-color="white"/>
</linearGradient>
<linearGradient id="paint17_linear" x1="73.6745" y1="211.384" x2="123.239" y2="214.352" gradientUnits="userSpaceOnUse">
<stop stop-color="#9FA0A6"/>
<stop offset="1" stop-color="white"/>
</linearGradient>
<linearGradient id="paint18_linear" x1="43.414" y1="213.954" x2="93.4668" y2="217.092" gradientUnits="userSpaceOnUse">
<stop stop-color="#9FA0A6"/>
<stop offset="1" stop-color="white"/>
</linearGradient>
<linearGradient id="paint19_linear" x1="30.206" y1="220.733" x2="79.7691" y2="223.7" gradientUnits="userSpaceOnUse">
<stop stop-color="#9FA0A6"/>
<stop offset="1" stop-color="white"/>
</linearGradient>
<linearGradient id="paint20_linear" x1="17.7702" y1="231.06" x2="66.4659" y2="233.735" gradientUnits="userSpaceOnUse">
<stop stop-color="#9FA0A6"/>
<stop offset="1" stop-color="white"/>
</linearGradient>
<linearGradient id="paint21_linear" x1="6.32002" y1="244.669" x2="53.9282" y2="246.989" gradientUnits="userSpaceOnUse">
<stop stop-color="#9FA0A6"/>
<stop offset="1" stop-color="white"/>
</linearGradient>
<linearGradient id="paint22_linear" x1="0.703555" y1="256.557" x2="47.4272" y2="258.601" gradientUnits="userSpaceOnUse">
<stop stop-color="#9FA0A6"/>
<stop offset="1" stop-color="white"/>
</linearGradient>
<linearGradient id="paint23_linear" x1="5.46097" y1="232.182" x2="54.3195" y2="234.911" gradientUnits="userSpaceOnUse">
<stop stop-color="#9FA0A6"/>
<stop offset="1" stop-color="white"/>
</linearGradient>
<linearGradient id="paint24_linear" x1="16.1335" y1="226.617" x2="65.3585" y2="229.47" gradientUnits="userSpaceOnUse">
<stop stop-color="#9FA0A6"/>
<stop offset="1" stop-color="white"/>
</linearGradient>
<linearGradient id="paint25_linear" x1="30.6106" y1="215.277" x2="80.849" y2="218.479" gradientUnits="userSpaceOnUse">
<stop stop-color="#9FA0A6"/>
<stop offset="1" stop-color="white"/>
</linearGradient>
<linearGradient id="paint26_linear" x1="70.7961" y1="1537.11" x2="109.819" y2="1537.14" gradientUnits="userSpaceOnUse">
<stop stop-color="#9FA0A6"/>
<stop offset="1" stop-color="white"/>
</linearGradient>
<linearGradient id="paint27_linear" x1="-118.859" y1="48.639" x2="-110.961" y2="231.502" gradientUnits="userSpaceOnUse">
<stop stop-color="#9FA0A6"/>
<stop offset="1" stop-color="white"/>
</linearGradient>
<linearGradient id="paint28_linear" x1="-120.068" y1="48.8963" x2="-112.17" y2="231.759" gradientUnits="userSpaceOnUse">
<stop stop-color="#9FA0A6"/>
<stop offset="1" stop-color="white"/>
</linearGradient>
<linearGradient id="paint29_linear" x1="-121.281" y1="49.1534" x2="-113.383" y2="232.017" gradientUnits="userSpaceOnUse">
<stop stop-color="#9FA0A6"/>
<stop offset="1" stop-color="white"/>
</linearGradient>
<linearGradient id="paint30_linear" x1="-122.494" y1="49.4047" x2="-114.596" y2="232.268" gradientUnits="userSpaceOnUse">
<stop stop-color="#9FA0A6"/>
<stop offset="1" stop-color="white"/>
</linearGradient>
<linearGradient id="paint31_linear" x1="-123.712" y1="49.6618" x2="-115.814" y2="232.525" gradientUnits="userSpaceOnUse">
<stop stop-color="#9FA0A6"/>
<stop offset="1" stop-color="white"/>
</linearGradient>
<linearGradient id="paint32_linear" x1="-124.921" y1="49.9189" x2="-117.022" y2="232.783" gradientUnits="userSpaceOnUse">
<stop stop-color="#9FA0A6"/>
<stop offset="1" stop-color="white"/>
</linearGradient>
<linearGradient id="paint33_linear" x1="-126.134" y1="50.1764" x2="-118.236" y2="233.039" gradientUnits="userSpaceOnUse">
<stop stop-color="#9FA0A6"/>
<stop offset="1" stop-color="white"/>
</linearGradient>
<linearGradient id="paint34_linear" x1="-127.352" y1="50.4333" x2="-119.454" y2="233.296" gradientUnits="userSpaceOnUse">
<stop stop-color="#9FA0A6"/>
<stop offset="1" stop-color="white"/>
</linearGradient>
<linearGradient id="paint35_linear" x1="-128.565" y1="50.6844" x2="-120.667" y2="233.548" gradientUnits="userSpaceOnUse">
<stop stop-color="#9FA0A6"/>
<stop offset="1" stop-color="white"/>
</linearGradient>
<linearGradient id="paint36_linear" x1="-129.778" y1="50.9418" x2="-121.88" y2="233.805" gradientUnits="userSpaceOnUse">
<stop stop-color="#9FA0A6"/>
<stop offset="1" stop-color="white"/>
</linearGradient>
<linearGradient id="paint37_linear" x1="-130.991" y1="51.1989" x2="-123.094" y2="234.062" gradientUnits="userSpaceOnUse">
<stop stop-color="#9FA0A6"/>
<stop offset="1" stop-color="white"/>
</linearGradient>
<linearGradient id="paint38_linear" x1="-132.204" y1="51.456" x2="-124.307" y2="234.32" gradientUnits="userSpaceOnUse">
<stop stop-color="#9FA0A6"/>
<stop offset="1" stop-color="white"/>
</linearGradient>
<linearGradient id="paint39_linear" x1="-133.418" y1="51.7135" x2="-125.52" y2="234.576" gradientUnits="userSpaceOnUse">
<stop stop-color="#9FA0A6"/>
<stop offset="1" stop-color="white"/>
</linearGradient>
<linearGradient id="paint40_linear" x1="53.6879" y1="89.1758" x2="164.874" y2="166.334" gradientUnits="userSpaceOnUse">
<stop stop-color="#9FA0A6"/>
<stop offset="1" stop-color="white"/>
</linearGradient>
<linearGradient id="paint41_linear" x1="44.8296" y1="89.9038" x2="156.484" y2="170.647" gradientUnits="userSpaceOnUse">
<stop stop-color="#9FA0A6"/>
<stop offset="1" stop-color="white"/>
</linearGradient>
<linearGradient id="paint42_linear" x1="78.9441" y1="1544.97" x2="117.965" y2="1545" gradientUnits="userSpaceOnUse">
<stop stop-color="#9FA0A6"/>
<stop offset="1" stop-color="white"/>
</linearGradient>
<linearGradient id="paint43_linear" x1="61.3031" y1="10.038" x2="13.2713" y2="28.56" gradientUnits="userSpaceOnUse">
<stop stop-color="#F4F0E7"/>
<stop offset="0.000821821" stop-color="#F3EFE6"/>
<stop offset="0.283885" stop-color="#CFCAC4"/>
<stop offset="0.537644" stop-color="#DDD8D1"/>
<stop offset="1" stop-color="#F4F0E7"/>
</linearGradient>
<linearGradient id="paint44_linear" x1="38.0271" y1="7.96183" x2="32.9298" y2="27.0862" gradientUnits="userSpaceOnUse">
<stop stop-color="#F4F0E7"/>
<stop offset="0.000821821" stop-color="#F3EFE6"/>
<stop offset="0.283885" stop-color="#CFCAC4"/>
<stop offset="0.537644" stop-color="#DDD8D1"/>
<stop offset="1" stop-color="#F4F0E7"/>
</linearGradient>
<linearGradient id="paint45_linear" x1="37.8508" y1="32.8527" x2="45.6124" y2="21.2476" gradientUnits="userSpaceOnUse">
<stop stop-color="#E6E2D9"/>
<stop offset="1" stop-color="#9B9893"/>
</linearGradient>
<linearGradient id="paint46_linear" x1="49.5103" y1="35.6144" x2="58.3343" y2="15.2568" gradientUnits="userSpaceOnUse">
<stop stop-color="#E6E2D9"/>
<stop offset="1" stop-color="#9B9893"/>
</linearGradient>
</defs>
</svg>
