<svg width="24" height="14" viewBox="0 0 24 14" fill="none" xmlns="http://www.w3.org/2000/svg">
<path d="M18 12.01L6 12.01C3.23858 12.01 1 9.77143 1 7.01001C1 4.24859 3.23858 2.01001 6 2.01001L18 2.01001C20.7614 2.01001 23 4.24859 23 7.01001C23 9.77143 20.7614 12.01 18 12.01Z" fill="#0089FF" stroke="#0270BB" stroke-miterlimit="10"/>
<path d="M20.6012 1.59545C19.5323 0.881223 18.2756 0.5 16.99 0.5C15.2661 0.5 13.6128 1.18483 12.3938 2.40382C11.1748 3.6228 10.49 5.27609 10.49 7C10.49 8.28558 10.8712 9.54227 11.5854 10.6112C12.2997 11.6801 13.3148 12.5133 14.5026 13.0052C15.6903 13.4972 16.9972 13.6259 18.2581 13.3751C19.5189 13.1243 20.6771 12.5052 21.5862 11.5962C22.4952 10.6871 23.1143 9.52896 23.3651 8.26809C23.6159 7.00721 23.4872 5.70029 22.9952 4.51257C22.5032 3.32485 21.6701 2.30968 20.6012 1.59545Z" fill="white" stroke="#D7E2F2"/>
</svg>
